<!-- Generated by IcoMoon.io -->
<svg version="1.1" xmlns="http://www.w3.org/2000/svg" width="24" height="24" viewBox="0 0 24 24">
<title>heart</title>
<path d="M17.25 1.5c-1.803 0-3.248 0.647-4.523 1.922-0.001 0.001-0.002 0.001-0.002 0.002h-0.001l-0.725 0.913-0.724-0.857c-0.001-0.001-0.002-0.002-0.002-0.002h-0.001c-1.275-1.276-2.719-1.978-4.522-1.978s-3.498 0.702-4.773 1.977c-1.274 1.275-1.977 2.97-1.977 4.773 0 1.802 0.701 3.496 1.975 4.771l8.96 9.035c0.281 0.284 0.665 0.444 1.065 0.444s0.784-0.16 1.065-0.444l8.96-9.035c1.274-1.274 1.976-2.968 1.976-4.771s-0.703-3.498-1.977-4.773c-1.275-1.275-2.97-1.977-4.773-1.977v0z"></path>
</svg>
