<!-- Generated by IcoMoon.io -->
<svg version="1.1" xmlns="http://www.w3.org/2000/svg" width="24" height="24" viewBox="0 0 24 24">
<title>quotes-left</title>
<path d="M5.273 10.5c2.899 0 5.25 2.351 5.25 5.25s-2.351 5.25-5.25 5.25-5.25-2.351-5.25-5.25l-0.023-0.75c0-5.799 4.701-10.5 10.5-10.5v3c-2.003 0-3.887 0.78-5.303 2.197-0.273 0.273-0.522 0.563-0.746 0.868 0.268-0.042 0.543-0.064 0.823-0.064zM18.773 10.5c2.899 0 5.25 2.351 5.25 5.25s-2.351 5.25-5.25 5.25-5.25-2.351-5.25-5.25l-0.023-0.75c0-5.799 4.701-10.5 10.5-10.5v3c-2.003 0-3.887 0.78-5.303 2.197-0.273 0.273-0.522 0.563-0.746 0.868 0.268-0.042 0.543-0.064 0.823-0.064z"></path>
</svg>
