<svg aria-hidden="true" style="position: absolute; width: 0; height: 0; overflow: hidden;" version="1.1" xmlns="http://www.w3.org/2000/svg" xmlns:xlink="http://www.w3.org/1999/xlink">
<defs>
<symbol id="icon-comment-alt2-fill" viewBox="0 0 28 32">
<title>comment-alt2-fill</title>
<path d="M14 0c-7.73 0-14 6.27-14 14 0 3.832 1.547 7.297 4.043 9.828l-0.043 8.172 6.703-4.434c1.063 0.262 2.156 0.434 3.297 0.434 7.73 0 14-6.27 14-14s-6.27-14-14-14z"></path>
</symbol>
<symbol id="icon-comment-alt2-stroke" viewBox="0 0 28 32">
<title>comment-alt2-stroke</title>
<path d="M14 0c-7.73 0-14 6.27-14 14 0 3.832 1.547 7.297 4.043 9.828l0.023 8.172 6.637-4.434c1.063 0.262 2.156 0.434 3.297 0.434 7.73 0 14-6.27 14-14s-6.27-14-14-14zM14 24c-0.707 0-1.473-0.105-2.34-0.316l-1.703-0.422-1.918 1.27 0.012-2.336-1.16-1.176c-1.864-1.891-2.891-4.383-2.891-7.020 0-5.516 4.484-10 10-10s10 4.484 10 10c0 5.516-4.484 10-10 10z"></path>
</symbol>
<symbol id="icon-comment-fill" viewBox="0 0 32 32">
<title>comment-fill</title>
<path d="M0 22c0 4.418 3.586 8 8 8 0-2.211 1.793-4 4-4h8c6.629 0 12-5.375 12-12s-5.371-12-12-12h-10c-5.523 0-10 4.477-10 10v10z"></path>
</symbol>
<symbol id="icon-comment-stroke" viewBox="0 0 32 32">
<title>comment-stroke</title>
<path d="M20 6c4.414 0 8 3.586 8 8s-3.586 8-8 8h-8c-2.609 0-4.934 1.258-6.395 3.203-0.972-0.734-1.605-1.898-1.605-3.203v-10c0-3.309 2.695-6 6-6h10zM20 2h-10c-5.523 0-10 4.477-10 10v10c0 4.418 3.586 8 8 8 0-2.211 1.793-4 4-4h8c6.629 0 12-5.375 12-12s-5.371-12-12-12v0z"></path>
</symbol>
<symbol id="icon-pin" viewBox="0 0 32 32">
<title>pin</title>
<path d="M16 0c-6.627 0-12 5.373-12 12s12 20 12 20 12-13.373 12-20-5.373-12-12-12zM16 20c-4.418 0-8-3.582-8-8s3.582-8 8-8 8 3.582 8 8-3.582 8-8 8z"></path>
</symbol>
<symbol id="icon-comment" viewBox="0 0 32 32">
<title>comment</title>
<path d="M16 27.969c-0.649 0-1.599-0.73-2.229-0.797-1.797 1.507-3.669 3.321-6.214 4.264-1.111 0.471-2.065 0.744-2.313 0.447-0.333-0.387-0.836-0.924-0.925-1.068 0.005-0.214 0.264-0.045 0.546-0.349 1.536-0.646 2.528-2.313 3.195-4.351-4.811-2.411-8.060-6.934-8.060-12.128 0-7.721 7.164-13.981 16-13.981s16 6.259 16 13.981-7.164 13.982-16 13.982z"></path>
</symbol>
<symbol id="icon-heart" viewBox="0 0 32 32">
<title>heart</title>
<path d="M23 2c-2.404 0-4.331 0.863-6.030 2.563-0.001 0.001-0.002 0.002-0.003 0.003h-0.001l-0.966 1.217-0.966-1.143c-0.001-0.001-0.002-0.002-0.003-0.003h-0.001c-1.7-1.701-3.626-2.637-6.030-2.637s-4.664 0.936-6.364 2.636c-1.699 1.7-2.636 3.96-2.636 6.364 0 2.402 0.935 4.662 2.633 6.361l11.947 12.047c0.375 0.379 0.887 0.592 1.42 0.592s1.045-0.213 1.42-0.592l11.946-12.047c1.698-1.699 2.634-3.958 2.634-6.361s-0.937-4.664-2.636-6.364c-1.7-1.7-3.96-2.636-6.364-2.636v0z"></path>
</symbol>
<symbol id="icon-location" viewBox="0 0 32 32">
<title>location</title>
<path d="M16 0c-5.523 0-10 4.477-10 10 0 10 10 22 10 22s10-12 10-22c0-5.523-4.477-10-10-10zM16 16c-3.314 0-6-2.686-6-6s2.686-6 6-6 6 2.686 6 6-2.686 6-6 6z"></path>
</symbol>
<symbol id="icon-bubble" viewBox="0 0 32 32">
<title>bubble</title>
<path d="M16 2c8.837 0 16 5.82 16 13s-7.163 13-16 13c-0.849 0-1.682-0.054-2.495-0.158-3.437 3.437-7.539 4.053-11.505 4.144v-0.841c2.142-1.049 4-2.961 4-5.145 0-0.305-0.024-0.604-0.068-0.897-3.619-2.383-5.932-6.024-5.932-10.103 0-7.18 7.163-13 16-13z"></path>
</symbol>
<symbol id="icon-quotes-left" viewBox="0 0 32 32">
<title>quotes-left</title>
<path d="M7.031 14c3.866 0 7 3.134 7 7s-3.134 7-7 7-7-3.134-7-7l-0.031-1c0-7.732 6.268-14 14-14v4c-2.671 0-5.182 1.040-7.071 2.929-0.364 0.364-0.695 0.751-0.995 1.157 0.357-0.056 0.724-0.086 1.097-0.086zM25.031 14c3.866 0 7 3.134 7 7s-3.134 7-7 7-7-3.134-7-7l-0.031-1c0-7.732 6.268-14 14-14v4c-2.671 0-5.182 1.040-7.071 2.929-0.364 0.364-0.695 0.751-0.995 1.157 0.358-0.056 0.724-0.086 1.097-0.086z"></path>
</symbol>
<symbol id="icon-arrow-right2" viewBox="0 0 32 32">
<title>arrow-right2</title>
<path d="M19.414 27.414l10-10c0.781-0.781 0.781-2.047 0-2.828l-10-10c-0.781-0.781-2.047-0.781-2.828 0s-0.781 2.047 0 2.828l6.586 6.586h-19.172c-1.105 0-2 0.895-2 2s0.895 2 2 2h19.172l-6.586 6.586c-0.39 0.39-0.586 0.902-0.586 1.414s0.195 1.024 0.586 1.414c0.781 0.781 2.047 0.781 2.828 0z"></path>
</symbol>
<symbol id="icon-arrow-left2" viewBox="0 0 32 32">
<title>arrow-left2</title>
<path d="M12.586 27.414l-10-10c-0.781-0.781-0.781-2.047 0-2.828l10-10c0.781-0.781 2.047-0.781 2.828 0s0.781 2.047 0 2.828l-6.586 6.586h19.172c1.105 0 2 0.895 2 2s-0.895 2-2 2h-19.172l6.586 6.586c0.39 0.39 0.586 0.902 0.586 1.414s-0.195 1.024-0.586 1.414c-0.781 0.781-2.047 0.781-2.828 0z"></path>
</symbol>
<symbol id="icon-arrow-right" viewBox="0 0 24 24">
<title>arrow-right</title>
<path d="M11.293 5.707l5.293 5.293h-11.586c-0.552 0-1 0.448-1 1s0.448 1 1 1h11.586l-5.293 5.293c-0.391 0.391-0.391 1.024 0 1.414s1.024 0.391 1.414 0l7-7c0.092-0.092 0.166-0.202 0.217-0.324 0.101-0.245 0.101-0.521 0-0.766-0.049-0.118-0.121-0.228-0.217-0.324l-7-7c-0.391-0.391-1.024-0.391-1.414 0s-0.391 1.024 0 1.414z"></path>
</symbol>
<symbol id="icon-arrow-left" viewBox="0 0 24 24">
<title>arrow-left</title>
<path d="M12.707 18.293l-5.293-5.293h11.586c0.552 0 1-0.448 1-1s-0.448-1-1-1h-11.586l5.293-5.293c0.391-0.391 0.391-1.024 0-1.414s-1.024-0.391-1.414 0l-7 7c-0.096 0.096-0.168 0.206-0.217 0.324-0.051 0.122-0.076 0.253-0.076 0.383 0 0.256 0.098 0.512 0.293 0.707l7 7c0.391 0.391 1.024 0.391 1.414 0s0.391-1.024 0-1.414z"></path>
</symbol>
<symbol id="icon-heart" viewBox="0 0 24 24">
<title>heart</title>
<path d="M17.25 1.5c-1.803 0-3.248 0.647-4.523 1.922-0.001 0.001-0.002 0.001-0.002 0.002h-0.001l-0.725 0.913-0.724-0.857c-0.001-0.001-0.002-0.002-0.002-0.002h-0.001c-1.275-1.276-2.719-1.978-4.522-1.978s-3.498 0.702-4.773 1.977c-1.274 1.275-1.977 2.97-1.977 4.773 0 1.802 0.701 3.496 1.975 4.771l8.96 9.035c0.281 0.284 0.665 0.444 1.065 0.444s0.784-0.16 1.065-0.444l8.96-9.035c1.274-1.274 1.976-2.968 1.976-4.771s-0.703-3.498-1.977-4.773c-1.275-1.275-2.97-1.977-4.773-1.977v0z"></path>
</symbol>
<symbol id="icon-location" viewBox="0 0 24 24">
<title>location</title>
<path d="M12 0c-4.142 0-7.5 3.358-7.5 7.5 0 7.5 7.5 16.5 7.5 16.5s7.5-9 7.5-16.5c0-4.142-3.358-7.5-7.5-7.5zM12 12c-2.485 0-4.5-2.015-4.5-4.5s2.015-4.5 4.5-4.5 4.5 2.015 4.5 4.5-2.015 4.5-4.5 4.5z"></path>
</symbol>
<symbol id="icon-bubble" viewBox="0 0 24 24">
<title>bubble</title>
<path d="M12 1.5c6.627 0 12 4.365 12 9.75s-5.373 9.75-12 9.75c-0.636 0-1.261-0.041-1.871-0.118-2.578 2.578-5.654 3.040-8.629 3.108v-0.631c1.606-0.787 3-2.22 3-3.859 0-0.229-0.018-0.453-0.051-0.673-2.714-1.787-4.449-4.518-4.449-7.577 0-5.385 5.373-9.75 12-9.75z"></path>
</symbol>
<symbol id="icon-quotes-left" viewBox="0 0 24 24">
<title>quotes-left</title>
<path d="M5.273 10.5c2.899 0 5.25 2.351 5.25 5.25s-2.351 5.25-5.25 5.25-5.25-2.351-5.25-5.25l-0.023-0.75c0-5.799 4.701-10.5 10.5-10.5v3c-2.003 0-3.887 0.78-5.303 2.197-0.273 0.273-0.522 0.563-0.746 0.868 0.268-0.042 0.543-0.064 0.823-0.064zM18.773 10.5c2.899 0 5.25 2.351 5.25 5.25s-2.351 5.25-5.25 5.25-5.25-2.351-5.25-5.25l-0.023-0.75c0-5.799 4.701-10.5 10.5-10.5v3c-2.003 0-3.887 0.78-5.303 2.197-0.273 0.273-0.522 0.563-0.746 0.868 0.268-0.042 0.543-0.064 0.823-0.064z"></path>
</symbol>
<symbol id="icon-arrow-right2" viewBox="0 0 24 24">
<title>arrow-right2</title>
<path d="M14.561 20.561l7.5-7.5c0.586-0.586 0.586-1.536 0-2.121l-7.5-7.5c-0.586-0.586-1.536-0.586-2.121 0s-0.586 1.536 0 2.121l4.939 4.939h-14.379c-0.828 0-1.5 0.672-1.5 1.5s0.672 1.5 1.5 1.5h14.379l-4.939 4.939c-0.293 0.293-0.439 0.677-0.439 1.061s0.146 0.768 0.439 1.061c0.586 0.586 1.536 0.586 2.121 0z"></path>
</symbol>
<symbol id="icon-arrow-left2" viewBox="0 0 24 24">
<title>arrow-left2</title>
<path d="M9.439 20.561l-7.5-7.5c-0.586-0.586-0.586-1.536 0-2.121l7.5-7.5c0.586-0.586 1.536-0.586 2.121 0s0.586 1.536 0 2.121l-4.939 4.939h14.379c0.828 0 1.5 0.672 1.5 1.5s-0.672 1.5-1.5 1.5h-14.379l4.939 4.939c0.293 0.293 0.439 0.677 0.439 1.061s-0.146 0.768-0.439 1.061c-0.586 0.586-1.536 0.586-2.121 0z"></path>
</symbol>
<symbol id="icon-arrow-right1" viewBox="0 0 20 20">
<title>arrow-right1</title>
<path d="M16.172 9l-6.071-6.071 1.414-1.414 8.485 8.485-8.485 8.485-1.414-1.414 6.071-6.071h-16.172v-2z"></path>
</symbol>
<symbol id="icon-arrow-left1" viewBox="0 0 20 20">
<title>arrow-left1</title>
<path d="M3.828 9l6.071-6.071-1.414-1.414-8.485 8.485 8.485 8.485 1.414-1.414-6.071-6.071h16.172v-2h-16.172z"></path>
</symbol>
<symbol id="icon-location1" viewBox="0 0 20 20">
<title>location1</title>
<path d="M10 20s-7-9.13-7-13c0-3.866 3.134-7 7-7s7 3.134 7 7v0c0 3.87-7 13-7 13zM10 9c1.105 0 2-0.895 2-2s-0.895-2-2-2v0c-1.105 0-2 0.895-2 2s0.895 2 2 2v0z"></path>
</symbol>
<symbol id="icon-location-pin" viewBox="0 0 20 20">
<title>location-pin</title>
<path d="M10 2.009c-2.762 0-5 2.229-5 4.99 0 4.774 5 11 5 11s5-6.227 5-11c0-2.76-2.238-4.99-5-4.99zM10 9.76c-1.492 0-2.7-1.209-2.7-2.7s1.208-2.7 2.7-2.7c1.49 0 2.699 1.209 2.699 2.7s-1.209 2.7-2.699 2.7z"></path>
</symbol>
<symbol id="icon-heart-outlined" viewBox="0 0 20 20">
<title>heart-outlined</title>
<path d="M17.19 4.156c-1.672-1.535-4.383-1.535-6.055 0l-1.135 1.041-1.136-1.041c-1.672-1.535-4.382-1.535-6.054 0-1.881 1.726-1.881 4.519 0 6.245l7.19 6.599 7.19-6.599c1.88-1.726 1.88-4.52 0-6.245zM16.124 9.375l-6.124 5.715-6.125-5.715c-0.617-0.567-0.856-1.307-0.856-2.094s0.138-1.433 0.756-1.999c0.545-0.501 1.278-0.777 2.063-0.777s1.517 0.476 2.062 0.978l2.1 1.825 2.099-1.826c0.546-0.502 1.278-0.978 2.063-0.978s1.518 0.276 2.063 0.777c0.618 0.566 0.755 1.212 0.755 1.999s-0.238 1.528-0.856 2.095z"></path>
</symbol>
<symbol id="icon-heart1" viewBox="0 0 20 20">
<title>heart1</title>
<path d="M17.19 4.155c-1.672-1.534-4.383-1.534-6.055 0l-1.135 1.042-1.136-1.042c-1.672-1.534-4.382-1.534-6.054 0-1.881 1.727-1.881 4.52 0 6.246l7.19 6.599 7.19-6.599c1.88-1.726 1.88-4.52 0-6.246z"></path>
</symbol>
<symbol id="icon-heart2" viewBox="0 0 37 32">
<title>heart2</title>
<path d="M27 0c-2.476 0-4.856 0.921-6.704 2.595-0.702 0.635-1.303 1.357-1.796 2.154-0.493-0.797-1.094-1.519-1.796-2.155-1.848-1.673-4.228-2.594-6.704-2.594-5.514 0-10 4.486-10 10 0 3.722 1.158 6.66 3.871 9.825 3.942 4.6 13.919 11.62 14.342 11.917 0.086 0.061 0.187 0.091 0.287 0.091s0.201-0.030 0.287-0.091c0.423-0.297 10.4-7.317 14.343-11.917 2.712-3.165 3.87-6.103 3.87-9.825 0-5.514-4.486-10-10-10zM32.371 19.175c-3.495 4.076-12.18 10.341-13.871 11.545-1.691-1.204-10.376-7.469-13.87-11.545-2.545-2.969-3.63-5.713-3.63-9.175 0-4.963 4.038-9 9-9 2.227 0 4.37 0.829 6.032 2.335 0.838 0.76 1.518 1.656 2.020 2.664 0.17 0.34 0.726 0.34 0.896 0 0.502-1.008 1.182-1.904 2.020-2.663 1.662-1.507 3.805-2.336 6.032-2.336 4.962 0 9 4.037 9 9 0 3.462-1.085 6.206-3.629 9.175z"></path>
</symbol>
<symbol id="icon-location2" viewBox="0 0 32 32">
<title>location2</title>
<path d="M11.163 11.554c0-2.655 2.166-4.807 4.837-4.807s4.837 2.152 4.837 4.807-2.166 4.806-4.837 4.806-4.837-2.152-4.837-4.806zM7.777 12.154c0 2.011 2.454 6.25 2.454 6.25l5.769 9.614 5.438-9.613c0 0 2.785-4.27 2.785-6.25 0-4.513-3.682-8.171-8.223-8.171s-8.223 3.657-8.223 8.17z"></path>
</symbol>
<symbol id="icon-male" viewBox="0 0 32 32">
<title>male</title>
<path d="M16.902 6.004h9.125l-0.020 9.229-3.129-3.128-2.949 2.949c0.662 1.164 1.043 2.507 1.043 3.941 0 4.418-3.58 8-8 8-4.418 0-8-3.582-8-8s3.582-8 8-8c1.525 0 2.946 0.435 4.16 1.176l2.918-2.956-3.148-3.211zM8.973 18.996c0 2.209 1.791 4 4 4s4-1.791 4-4-1.791-4-4-4-4 1.791-4 4z"></path>
</symbol>
<symbol id="icon-female" viewBox="0 0 32 32">
<title>female</title>
<path d="M18.039 18.721v3.293h3.996v3.996h-3.996v3.996h-4.057v-3.996h-3.995v-3.996h3.995v-3.305c-3.435-0.895-5.973-4.009-5.973-7.723 0-4.413 3.578-7.991 7.991-7.991s7.99 3.578 7.99 7.991c0 3.729-2.496 6.852-5.951 7.735zM16 6.991c-2.207 0-3.996 1.788-3.996 3.995 0 2.206 1.789 3.995 3.996 3.995s3.996-1.789 3.996-3.995c0-2.207-1.789-3.995-3.996-3.995z"></path>
</symbol>
<symbol id="icon-heart3" viewBox="0 0 32 32">
<title>heart3</title>
<path d="M24 12.977c-3.866 0-7 3.158-7 7.055 0 2.22 1.020 4.197 2.609 5.491-2.056 1.525-3.609 2.488-3.609 2.488s-14-8.652-14-15.622c0-4.2 2.583-8.399 7.5-8.399 4.5 0 6.5 4.296 6.5 4.296s1.75-4.296 6.5-4.296 7.416 4.115 7.416 8.399c0 0.958-0.272 1.943-0.716 2.932-1.281-1.436-3.134-2.344-5.2-2.344zM24 13.984c3.313 0 6 2.707 6 6.047s-2.687 6.048-6 6.048c-3.314 0-6-2.708-6-6.048s2.686-6.047 6-6.047zM21 21.039h2v2.016h2v-2.016h2v-2.016h-2v-2.016h-2v2.016h-2v2.016z"></path>
</symbol>
<symbol id="icon-heart4" viewBox="0 0 32 32">
<title>heart4</title>
<path d="M29.193 5.265c-3.629-3.596-9.432-3.671-13.191-0.288-3.76-3.383-9.561-3.308-13.192 0.288-3.741 3.704-3.741 9.709 0 13.415 1.069 1.059 11.053 10.941 11.053 10.941 1.183 1.172 3.096 1.172 4.278 0 0 0 10.932-10.822 11.053-10.941 3.742-3.706 3.742-9.711-0.001-13.415zM27.768 17.268l-11.053 10.941c-0.393 0.391-1.034 0.391-1.425 0l-11.053-10.941c-2.95-2.92-2.95-7.671 0-10.591 2.844-2.815 7.416-2.914 10.409-0.222l1.356 1.22 1.355-1.22c2.994-2.692 7.566-2.594 10.41 0.222 2.95 2.919 2.95 7.67 0.001 10.591zM9.253 7.501c0.277 0 0.5 0.224 0.5 0.5s-0.224 0.5-0.5 0.5h-0.001c-1.794 0-3.249 1.455-3.249 3.249v0.001c0 0.276-0.224 0.5-0.5 0.5s-0.5-0.224-0.5-0.5v0c0-2.346 1.901-4.247 4.246-4.249 0.002 0 0.002-0.001 0.004-0.001z"></path>
</symbol>
<symbol id="icon-heart-o" viewBox="0 0 28 28">
<title>heart-o</title>
<path d="M26 9.312c0-4.391-2.969-5.313-5.469-5.313-2.328 0-4.953 2.516-5.766 3.484-0.375 0.453-1.156 0.453-1.531 0-0.812-0.969-3.437-3.484-5.766-3.484-2.5 0-5.469 0.922-5.469 5.313 0 2.859 2.891 5.516 2.922 5.547l9.078 8.75 9.063-8.734c0.047-0.047 2.938-2.703 2.938-5.563zM28 9.312c0 3.75-3.437 6.891-3.578 7.031l-9.734 9.375c-0.187 0.187-0.438 0.281-0.688 0.281s-0.5-0.094-0.688-0.281l-9.75-9.406c-0.125-0.109-3.563-3.25-3.563-7 0-4.578 2.797-7.313 7.469-7.313 2.734 0 5.297 2.156 6.531 3.375 1.234-1.219 3.797-3.375 6.531-3.375 4.672 0 7.469 2.734 7.469 7.313z"></path>
</symbol>
<symbol id="icon-heart5" viewBox="0 0 28 28">
<title>heart5</title>
<path d="M14 26c-0.25 0-0.5-0.094-0.688-0.281l-9.75-9.406c-0.125-0.109-3.563-3.25-3.563-7 0-4.578 2.797-7.313 7.469-7.313 2.734 0 5.297 2.156 6.531 3.375 1.234-1.219 3.797-3.375 6.531-3.375 4.672 0 7.469 2.734 7.469 7.313 0 3.75-3.437 6.891-3.578 7.031l-9.734 9.375c-0.187 0.187-0.438 0.281-0.688 0.281z"></path>
</symbol>
</defs>
</svg>
